<svg width="358" height="112" viewBox="0 0 358 112" fill="none" xmlns="http://www.w3.org/2000/svg">
<g clip-path="url(#clip0_4001_23732)">
<rect x="0.5" y="0.5" width="357" height="111" rx="15.5" fill="url(#paint0_linear_4001_23732)" stroke="url(#paint1_linear_4001_23732)"/>
<path d="M335.404 105.884C353.441 105.884 368.062 103.554 368.062 100.68C368.062 97.8061 353.441 95.4761 335.404 95.4761C317.368 95.4761 302.746 97.8061 302.746 100.68C302.746 103.554 317.368 105.884 335.404 105.884Z" fill="#CE4910"/>
<path d="M368.057 101.117L364.818 106.891L364.525 107.397V107.408C363.151 108.772 356.929 109.922 348.369 110.497C348.252 110.508 348.124 110.508 347.991 110.519C347.357 110.567 346.723 110.599 346.068 110.625C342.829 110.812 339.308 110.908 335.633 110.908C321.405 110.908 309.548 109.485 306.965 107.61V107.6H306.954C306.741 107.445 306.592 107.285 306.507 107.12L306.469 107.051L305.798 105.879L302.943 100.867C303.273 101.314 304.046 101.735 305.223 102.124L305.234 102.134C307.359 102.848 310.752 103.482 315.024 103.967C320.66 104.59 327.829 104.979 335.628 104.979C340.065 104.979 344.278 104.851 348.129 104.627C348.987 104.579 349.818 104.521 350.628 104.462C352.625 104.324 354.49 104.159 356.226 103.967C362.4 103.264 366.746 102.262 368.046 101.128L368.057 101.117Z" fill="#FF8D12"/>
<path d="M382.556 59.3826C382.508 59.4891 382.471 59.5903 382.423 59.6968C382.412 59.7182 382.407 59.7448 382.396 59.7661C382.087 60.5544 381.757 61.3534 381.437 62.1418C380.841 63.6173 380.255 65.0875 379.653 66.5683C377.847 71.0374 376.052 75.5012 374.241 79.9596C374.241 79.9596 374.225 79.9916 374.204 80.0555C374.177 80.1141 374.15 80.1727 374.129 80.2366C374.124 80.2632 374.113 80.2898 374.102 80.3218C374.055 80.4283 374.007 80.5349 373.959 80.6414C372.712 83.7309 371.471 86.8204 370.219 89.9099C370.187 89.9898 370.155 90.0643 370.123 90.1442C368.68 93.7344 367.236 97.3193 365.788 100.904C365.628 100.973 365.415 101.059 365.191 101.128H365.18C364.829 101.245 364.413 101.362 363.939 101.474C363.779 101.511 363.609 101.554 363.433 101.591C362.08 101.879 360.328 102.14 358.261 102.374C357.217 102.492 356.098 102.598 354.905 102.699C354.474 102.737 354.026 102.769 353.579 102.806C352.886 102.864 352.172 102.912 351.432 102.96C350.74 103.003 350.01 103.04 349.275 103.088C348.779 103.109 348.263 103.136 347.746 103.157C347.474 103.168 347.208 103.179 346.936 103.179C346.292 103.216 345.621 103.237 344.939 103.264C342.686 103.333 340.326 103.381 337.886 103.402C337.109 103.413 336.326 103.413 335.527 103.413H335.42C334.621 103.413 333.838 103.413 333.06 103.402C329.502 103.381 326.125 103.285 323.014 103.147C318.753 102.944 314.992 102.651 311.988 102.289C311.588 102.236 311.205 102.188 310.832 102.14C310.512 102.092 310.198 102.049 309.9 102.007C308.36 101.772 307.103 101.511 306.176 101.245C305.873 101.149 305.596 101.053 305.367 100.957C305.345 100.957 305.324 100.941 305.303 100.925C305.276 100.925 305.244 100.904 305.218 100.894C305.063 100.515 304.909 100.126 304.76 99.7536C300.296 88.706 295.837 77.6585 291.374 66.6002C290.777 65.1088 290.164 63.6333 289.568 62.1418C289.392 61.7157 289.227 61.2842 289.051 60.8581L288.662 59.8886L288.449 59.3826C288.156 58.6635 288.886 57.9497 289.6 58.264C290.718 58.7487 291.81 59.2174 292.854 59.6649C293.898 60.107 294.91 60.5438 295.896 60.9433C296.162 61.0498 296.434 61.167 296.695 61.2576C299.507 62.4081 302.011 63.3989 304.11 64.1819C304.44 64.2991 304.77 64.4163 305.074 64.5335C305.862 64.8265 306.587 65.0875 307.247 65.3112C307.492 65.3911 307.737 65.4763 307.972 65.5562L308.115 65.6041C309.101 65.9184 309.873 66.1528 310.438 66.286C311.12 66.4511 312.015 66.6002 313.09 66.5416C313.09 66.5416 315.147 66.4351 317.517 65.1194C317.682 65.0395 317.847 64.933 318.023 64.8265C318.199 64.7252 318.364 64.6081 318.54 64.4855C318.55 64.4749 318.561 64.4642 318.561 64.4642C321.405 62.4827 327.968 49.0381 334.706 29.5637C334.823 29.2441 335.068 29.0577 335.351 28.9991H335.361C335.75 28.9192 336.182 29.095 336.347 29.5531C336.358 29.585 336.373 29.6117 336.384 29.6436C343.447 48.9902 349.823 62.504 352.444 64.4642C352.876 64.7838 353.312 65.0502 353.723 65.2739C353.861 65.3591 354.005 65.4284 354.133 65.487C354.356 65.6041 354.58 65.7107 354.777 65.7906C355.645 66.1688 356.258 66.3073 356.258 66.3073C357.046 66.4937 357.712 66.531 357.915 66.5416C357.915 66.5416 359.214 66.6002 360.567 66.286C361.153 66.1421 361.974 65.8971 363.018 65.5562H363.034L363.092 65.5349C366.848 64.2885 373.351 61.7636 381.405 58.264C381.624 58.1734 381.847 58.1734 382.039 58.2427L382.364 58.4397L382.375 58.4557C382.599 58.6901 382.694 59.031 382.556 59.3826Z" fill="#FF9810"/>
<g style="mix-blend-mode:overlay" opacity="0.4">
<path d="M297.787 64.0328L307.476 94.9117L293.595 61.8755L297.787 64.0328Z" fill="#FFEFB0"/>
</g>
<path d="M321.224 64.0325C321.224 64.0325 335.468 39.6096 335.793 39.7268C336.118 39.844 350.095 63.8834 350.095 63.8834L335.793 31.0869L321.224 64.0272V64.0325Z" fill="#FFEFB0"/>
<path d="M382.556 59.3823C382.508 59.4889 382.471 59.5901 382.423 59.6966C382.412 59.7179 382.407 59.7445 382.396 59.7658C382.087 60.5542 381.757 61.3532 381.437 62.1416C380.841 63.617 380.255 65.0872 379.653 66.568C377.847 71.0371 376.052 75.5009 374.241 79.9594C374.241 79.9594 374.225 79.9913 374.204 80.0552C374.177 80.1138 374.15 80.1724 374.129 80.2363C374.124 80.263 374.113 80.2896 374.102 80.3216C374.055 80.4281 374.007 80.5346 373.959 80.6412C372.712 83.7307 371.471 86.8201 370.219 89.9096C370.187 89.9895 370.155 90.0641 370.123 90.144C368.68 93.7342 367.236 97.319 365.787 100.904C365.628 100.973 365.415 101.058 365.191 101.128H365.18C364.829 101.245 364.413 101.362 363.939 101.474C363.779 101.511 363.609 101.554 363.433 101.591C362.08 101.879 360.328 102.14 358.261 102.374C357.217 102.491 356.098 102.598 354.905 102.699C354.474 102.736 354.026 102.768 353.579 102.806C352.886 102.864 352.172 102.912 351.432 102.96C350.74 103.003 350.01 103.04 349.275 103.088C348.779 103.109 348.263 103.136 347.746 103.157L347.916 102.273V102.23L354.308 68.3152L354.777 65.7903C355.645 66.1685 356.258 66.307 356.258 66.307C357.046 66.4935 357.712 66.5307 357.915 66.5414C357.915 66.5414 359.214 66.6 360.567 66.2857C361.153 66.1419 361.974 65.8969 363.018 65.556H363.034L363.092 65.5347C366.848 64.2882 373.351 61.7634 381.405 58.2637C381.624 58.1732 381.847 58.1732 382.039 58.2424L382.364 58.4395L382.375 58.4555C382.599 58.6899 382.694 59.0308 382.556 59.3823Z" fill="#EF7110"/>
<path d="M357.584 66.5204L348.556 103.125C348.284 103.136 348.018 103.147 347.746 103.163C347.474 103.173 347.208 103.184 346.936 103.184L353.722 65.2793C354.101 65.4924 354.452 65.6575 354.777 65.796C355.645 66.1742 356.258 66.3127 356.258 66.3127C356.785 66.4405 357.27 66.4991 357.584 66.5257V66.5204Z" fill="#FFC870"/>
<path d="M323.014 103.147C317.698 102.902 313.165 102.502 309.9 102.007L295.896 60.9434C303.082 63.8997 308.339 65.7907 310.443 66.286C311.125 66.4512 312.014 66.6003 313.096 66.5417C313.096 66.5417 313.868 66.5044 315.035 66.1635L323.019 103.141L323.014 103.147Z" fill="#FFC870"/>
<path d="M304.759 99.7534C300.301 88.7059 295.837 77.6583 291.379 66.6001C290.606 64.6878 289.829 62.7755 289.056 60.8579L291.272 61.3533L304.765 99.7481L304.759 99.7534Z" fill="#FFEFB0"/>
<path d="M302.283 66.856C302.283 66.856 308.829 86.9909 309.053 87.1134C309.277 87.2359 314.747 91.2789 314.747 91.2789L312.499 68.1237L302.283 66.856Z" fill="#FFEFB0"/>
<path d="M323.563 103.535C323.201 103.083 316.1 68.5336 316.1 68.5336L314.747 67.1807L323.563 103.535Z" fill="#FFEFB0"/>
<path d="M382.556 59.3826C382.508 59.4891 382.476 59.5956 382.428 59.6968C382.108 60.5065 381.773 61.3268 381.443 62.1365C371.37 66.0782 363.833 68.6031 361.18 69.1677C359.795 69.4607 358.469 69.4021 358.469 69.4021C358.255 69.4021 357.579 69.3648 356.764 69.189C356.764 69.189 355.661 68.9546 354.308 68.3101C353.84 68.0864 353.334 67.8041 352.854 67.4791C350.18 65.6468 343.65 53.0864 336.405 35.0928C336.395 35.0555 336.384 35.0342 336.368 35.0129C336.192 34.5761 335.756 34.4163 335.356 34.4962H335.345C335.052 34.5548 334.807 34.72 334.674 35.0236C327.771 53.1397 321.059 65.6414 318.145 67.4845L318.124 67.5058C315.296 69.2796 312.536 69.4074 312.536 69.4074C311.434 69.466 310.518 69.3275 309.825 69.173C307.172 68.6084 299.635 66.0836 289.562 62.1418C289.387 61.721 289.222 61.2842 289.046 60.8634L288.657 59.8886L288.444 59.3826C288.151 58.6688 288.881 57.9497 289.594 58.2693C290.708 58.7487 291.8 59.2228 292.844 59.6649C294.181 60.2295 295.459 60.7675 296.684 61.2629C299.502 62.4135 302 63.3989 304.104 64.1872C304.435 64.3151 304.759 64.4323 305.068 64.5388C305.857 64.8318 306.581 65.0928 307.242 65.3112C307.487 65.3911 307.737 65.4763 307.971 65.5562L308.11 65.6041C309.095 65.9184 309.873 66.1581 310.432 66.286C311.114 66.4511 312.004 66.6002 313.085 66.5416C313.085 66.5416 315.141 66.4351 317.512 65.1194C317.677 65.0395 317.853 64.933 318.018 64.8264C318.193 64.7199 318.359 64.6027 318.534 64.4855L318.556 64.4642C321.395 62.4827 327.957 49.0381 334.696 29.5637C334.813 29.2441 335.058 29.0577 335.34 28.9991H335.351C335.74 28.9192 336.171 29.095 336.336 29.5531C336.347 29.5904 336.357 29.6117 336.373 29.649C343.442 48.9955 349.813 62.5093 352.433 64.4696C352.87 64.7892 353.302 65.0555 353.712 65.2792C353.85 65.3591 353.994 65.4337 354.122 65.4923C354.346 65.6095 354.569 65.716 354.767 65.7959C355.635 66.1741 356.247 66.3126 356.247 66.3126C357.036 66.499 357.702 66.5363 357.904 66.547C357.904 66.547 359.209 66.6056 360.557 66.2913C361.143 66.1528 361.963 65.9024 363.012 65.5615H363.023L363.081 65.5402C366.837 64.2938 373.341 61.7743 381.395 58.2746C381.618 58.1787 381.842 58.1787 382.029 58.2533L382.359 58.4504L382.369 58.4611C382.593 58.6954 382.689 59.0363 382.545 59.3879L382.556 59.3826Z" fill="url(#paint2_linear_4001_23732)"/>
<path d="M309.9 102.007L300.578 80.3057L306.176 101.245L309.9 102.007Z" fill="#FF8511"/>
<path d="M307.972 65.5559L288.662 59.8883L288.449 59.3823C288.156 58.6685 288.886 57.9494 289.6 58.269C297.686 61.7793 304.227 64.3148 307.972 65.5612V65.5559Z" fill="#FFEFB0"/>
<path d="M335.793 71.0161L325.321 75.0271V88.9032L335.793 92.9461L327.009 87.4436V76.5239L335.793 71.0161Z" fill="#FFC870"/>
<path opacity="0.5" d="M335.793 71.0161L345.562 75.5598L346.233 88.1521L339.628 94.0754L335.793 92.9461V71.0161Z" fill="#EF7110"/>
<path d="M288.38 62.9831C290.719 62.9831 292.615 61.0872 292.615 58.7484C292.615 56.4096 290.719 54.5137 288.38 54.5137C286.041 54.5137 284.145 56.4096 284.145 58.7484C284.145 61.0872 286.041 62.9831 288.38 62.9831Z" fill="#FF9810"/>
<path opacity="0.22" d="M374.39 79.6025C373.074 83.0383 371.647 86.4686 370.219 89.9097C370.187 89.9896 370.155 90.0642 370.123 90.1441C368.637 93.7236 367.151 97.2978 365.782 100.872C365.617 100.947 365.404 101.032 365.18 101.106H365.17C364.818 101.229 364.408 101.351 363.939 101.474C363.779 101.511 363.609 101.554 363.433 101.591C362.075 101.9 360.322 102.182 358.24 102.427C357.19 102.555 356.061 102.667 354.852 102.774C354.415 102.811 353.968 102.848 353.52 102.886C352.822 102.949 352.103 102.997 351.363 103.051C350.665 103.099 349.935 103.136 349.195 103.184C348.699 103.21 348.177 103.237 347.661 103.258C347.389 103.274 347.117 103.285 346.846 103.285C346.196 103.322 345.525 103.349 344.843 103.37C342.579 103.445 340.209 103.498 337.753 103.519C336.975 103.535 336.187 103.535 335.383 103.535H335.276C334.477 103.535 333.683 103.535 332.906 103.519C329.337 103.498 325.938 103.397 322.812 103.248C318.534 103.035 314.758 102.726 311.743 102.337L310.832 102.14L305.367 100.957L304.935 100.861C305.058 100.883 305.18 100.909 305.303 100.925C319.6 103.589 335.862 103.205 347.837 102.278C347.863 102.278 347.89 102.273 347.916 102.273C352.332 101.932 356.045 101.389 358.825 100.888C362.346 100.254 364.392 99.6842 364.557 99.6522C365.111 99.5723 372.057 85.089 374.129 80.2364C374.15 80.1725 374.177 80.1139 374.204 80.0553C374.273 79.8902 374.337 79.741 374.39 79.6025Z" fill="#A33A09"/>
<path d="M306.965 107.594H306.954L305.804 105.868L302.948 100.856C303.279 101.303 304.051 101.724 305.228 102.113L305.239 102.124L306.965 107.594Z" fill="url(#paint3_linear_4001_23732)"/>
<path d="M307.476 102.742C307.982 102.854 310.374 108.159 310.374 108.159L321.219 109.459L323.557 104.643C318.193 104.009 312.835 103.376 307.471 102.742H307.476Z" fill="#FFC870"/>
<path d="M310.896 103.146C310.896 103.146 312.078 106.864 312.377 106.763C312.675 106.662 320.569 106.763 320.569 106.763L317.741 104.222L310.896 103.141V103.146Z" fill="#FFEFB0"/>
<path d="M368.057 101.117L364.818 106.891L364.525 107.397V107.408C363.129 108.793 356.743 109.954 347.996 110.519L350.495 104.494L350.633 104.446C352.631 104.308 354.495 104.143 356.231 103.951C362.405 103.248 366.752 102.246 368.051 101.112L368.057 101.117Z" fill="#EF7110"/>
<path d="M350.633 104.452L348.369 110.497C348.252 110.508 348.124 110.508 347.991 110.519C347.357 110.567 346.723 110.599 346.068 110.625L348.135 104.617L348.193 104.452H350.633Z" fill="#FFC870"/>
<path style="mix-blend-mode:luminosity" opacity="0.6" d="M287.293 61.5826C289.035 61.5826 290.447 60.0635 290.447 58.1895C290.447 56.3155 289.035 54.7964 287.293 54.7964C285.552 54.7964 284.14 56.3155 284.14 58.1895C284.14 60.0635 285.552 61.5826 287.293 61.5826Z" fill="url(#paint4_linear_4001_23732)"/>
<path style="mix-blend-mode:luminosity" opacity="0.6" d="M336.405 32.2642C336.102 32.7116 323.563 104.643 323.563 104.643L315.519 70.92L322.183 60.6341L336.405 32.2642Z" fill="url(#paint5_linear_4001_23732)"/>
<path d="M335.851 32.6582C337.402 37.7026 339.575 43.4927 342.648 49.6823C346.42 57.2675 350.569 63.4678 354.308 68.3204C354.266 68.4163 352.258 72.9067 352.258 72.9067L340.448 49.2029C340.448 49.2029 339.937 55.2168 339.591 54.5136C339.25 53.8105 334.067 36.9196 334.067 36.9196L335.846 32.6582H335.851Z" fill="url(#paint6_linear_4001_23732)"/>
<path d="M335.356 34.2937C337.695 34.2937 339.591 32.3977 339.591 30.0589C339.591 27.7202 337.695 25.8242 335.356 25.8242C333.017 25.8242 331.121 27.7202 331.121 30.0589C331.121 32.3977 333.017 34.2937 335.356 34.2937Z" fill="#FF9810"/>
<path d="M335.852 34.2617C335.686 34.283 335.521 34.2989 335.356 34.2989C333.007 34.2989 331.116 32.3973 331.116 30.0589C331.116 27.7205 333.007 25.8188 335.356 25.8188C335.521 25.8188 335.686 25.8295 335.852 25.8561C333.753 26.1012 332.118 27.8963 332.118 30.0589C332.118 32.2215 333.747 34.0166 335.852 34.2617Z" fill="#EF7110"/>
<path d="M334.861 25.8561C335.026 25.8348 335.191 25.8188 335.356 25.8188C337.705 25.8188 339.596 27.7205 339.596 30.0589C339.596 32.3973 337.705 34.2989 335.356 34.2989C335.191 34.2989 335.026 34.2883 334.861 34.2617C336.959 34.0166 338.595 32.2215 338.595 30.0589C338.595 27.8963 336.965 26.1012 334.861 25.8561Z" fill="#FFC870"/>
<path style="mix-blend-mode:luminosity" opacity="0.6" d="M334.861 32.8453C336.602 32.8453 338.014 31.3261 338.014 29.4522C338.014 27.5782 336.602 26.0591 334.861 26.0591C333.119 26.0591 331.707 27.5782 331.707 29.4522C331.707 31.3261 333.119 32.8453 334.861 32.8453Z" fill="url(#paint7_linear_4001_23732)"/>
<path d="M335.857 71.0161L327.068 76.5239V87.4436L335.857 92.9461L344.63 87.4436V76.5239L335.857 71.0161Z" fill="#1E114C"/>
<path d="M335.857 71.7192V74.8354L330.152 78.4096L327.664 76.8542L335.857 71.7192Z" fill="#4A28CC"/>
<path d="M344.033 76.8542L341.551 78.4096L335.857 74.8354V71.7192L344.033 76.8542Z" fill="#281D93"/>
<path d="M344.033 76.854V87.1132L341.551 85.5578V78.4094L344.033 76.854Z" fill="#1B187A"/>
<path d="M344.033 87.1135L335.857 92.2484V89.127L341.551 85.5581L344.033 87.1135Z" fill="#13135E"/>
<path d="M335.857 89.127V92.2484L327.664 87.1135L330.152 85.5581L335.857 89.127Z" fill="#1B187A"/>
<path d="M330.152 78.4094V85.5578L327.664 87.1132V76.854L330.152 78.4094Z" fill="#281D93"/>
<path d="M341.551 78.4097V85.5581L335.857 89.127L330.152 85.5581V78.4097L335.857 74.8354L341.551 78.4097Z" fill="#6543E5"/>
<path style="mix-blend-mode:screen" opacity="0.6" d="M327.664 76.8542L330.152 78.4096L335.857 74.8354L331.191 77.275L335.852 73.6262L335.857 71.7192L327.664 76.8542Z" fill="url(#paint8_linear_4001_23732)"/>
<path style="mix-blend-mode:screen" opacity="0.6" d="M344.033 76.854L341.429 78.3295L337.008 75.5596L341.248 78.5372L341.301 85.2542L335.857 89.1267L341.551 85.5578V78.5638L344.033 76.854Z" fill="url(#paint9_linear_4001_23732)"/>
<path style="mix-blend-mode:luminosity" opacity="0.3" d="M335.292 82.8734C330.685 83.2889 330.61 80.1834 330.147 78.4043L335.846 72.9019C336.368 73.7275 337.481 75.8475 337.822 76.9661C338.85 80.3326 336.949 82.7243 335.292 82.8734Z" fill="url(#paint10_linear_4001_23732)"/>
<path style="mix-blend-mode:overlay" opacity="0.2" d="M331.803 86.5912L327.664 76.854C328.218 80.62 328.772 84.3859 329.326 88.1519L331.803 86.5912Z" fill="url(#paint11_linear_4001_23732)"/>
<path style="mix-blend-mode:overlay" opacity="0.2" d="M330.104 81.3234L335.857 74.8354C333.13 75.5066 330.397 76.1778 327.67 76.8489L330.104 81.3234Z" fill="url(#paint12_linear_4001_23732)"/>
<path style="mix-blend-mode:overlay" opacity="0.2" d="M335.857 71.7192L341.429 78.3297L335.857 74.8354L330.03 75.368L335.857 71.7192Z" fill="url(#paint13_linear_4001_23732)"/>
<path style="mix-blend-mode:overlay" opacity="0.2" d="M335.857 92.2484L330.152 85.5581L335.857 89.127V92.2484Z" fill="url(#paint14_linear_4001_23732)"/>
<path opacity="0.25" d="M335.138 40.6323L338.115 65.5559L327.664 76.8539L335.857 74.835L341.551 85.5577L345.109 69.4231L335.138 40.6323Z" fill="#FFEFB0"/>
<path opacity="0.25" d="M291.938 63.2764L304.935 100.862L309.9 102.007L294.484 64.0328L291.938 63.2764Z" fill="#FFEFB0"/>
<path d="M307.476 102.742C307.476 102.742 327.345 107.664 354.905 104.643L355.145 104.185C355.145 104.185 328.794 106.769 307.476 102.742Z" fill="url(#paint15_linear_4001_23732)"/>
<path d="M308.515 107.536C308.515 107.536 322.087 109.682 338.771 109.459C338.771 109.459 332.719 109.794 321.597 109.863L308.515 107.536Z" fill="url(#paint16_linear_4001_23732)"/>
<path opacity="0.36" d="M367.556 102.007C367.556 102.007 363.295 107.397 363.092 107.397C362.89 107.397 350.638 108.702 350.638 108.702L357.59 106.103L360.716 105.629L367.561 102.012L367.556 102.007Z" fill="url(#paint17_linear_4001_23732)"/>
</g>
<defs>
<linearGradient id="paint0_linear_4001_23732" x1="-1.2906e-06" y1="1.8421" x2="220.495" y2="246.218" gradientUnits="userSpaceOnUse">
<stop stop-color="#ABE2F3"/>
<stop offset="0.385417" stop-color="#BDE4E5"/>
<stop offset="1" stop-color="#EBE9D0"/>
</linearGradient>
<linearGradient id="paint1_linear_4001_23732" x1="0" y1="112" x2="213.324" y2="-128.388" gradientUnits="userSpaceOnUse">
<stop stop-color="#FEC536"/>
<stop offset="0.445" stop-color="#98AAFE"/>
<stop offset="1" stop-color="#6179FA"/>
</linearGradient>
<linearGradient id="paint2_linear_4001_23732" x1="288.385" y1="49.2033" x2="382.62" y2="49.2033" gradientUnits="userSpaceOnUse">
<stop stop-color="#FFD31F"/>
<stop offset="0.96" stop-color="#FFD31F"/>
<stop offset="1" stop-color="#FFD621"/>
</linearGradient>
<linearGradient id="paint3_linear_4001_23732" x1="302.948" y1="104.228" x2="306.965" y2="104.228" gradientUnits="userSpaceOnUse">
<stop stop-color="#FFD31F"/>
<stop offset="0.96" stop-color="#FFD31F"/>
<stop offset="1" stop-color="#FFD621"/>
</linearGradient>
<linearGradient id="paint4_linear_4001_23732" x1="288.295" y1="57.2467" x2="283.65" y2="61.6412" gradientUnits="userSpaceOnUse">
<stop stop-color="#FECD00" stop-opacity="0.4"/>
<stop offset="0.05" stop-color="#FECF12" stop-opacity="0.45"/>
<stop offset="0.36" stop-color="#FEE285" stop-opacity="0.74"/>
<stop offset="0.58" stop-color="#FEEDCD" stop-opacity="0.93"/>
<stop offset="0.68" stop-color="#FFF2EA"/>
</linearGradient>
<linearGradient id="paint5_linear_4001_23732" x1="333.742" y1="67.6601" x2="344.22" y2="65.4441" gradientUnits="userSpaceOnUse">
<stop stop-color="#FECD00" stop-opacity="0.4"/>
<stop offset="0.06" stop-color="#FECE07" stop-opacity="0.42"/>
<stop offset="0.16" stop-color="#FED11A" stop-opacity="0.47"/>
<stop offset="0.27" stop-color="#FED63A" stop-opacity="0.55"/>
<stop offset="0.39" stop-color="#FEDD67" stop-opacity="0.67"/>
<stop offset="0.53" stop-color="#FEE6A0" stop-opacity="0.81"/>
<stop offset="0.67" stop-color="#FEF1E5" stop-opacity="0.99"/>
<stop offset="0.68" stop-color="#FFF2EA"/>
</linearGradient>
<linearGradient id="paint6_linear_4001_23732" x1="343.49" y1="53.427" x2="357.579" y2="37.2445" gradientUnits="userSpaceOnUse">
<stop stop-color="#FECD00" stop-opacity="0.4"/>
<stop offset="0.06" stop-color="#FECE07" stop-opacity="0.42"/>
<stop offset="0.16" stop-color="#FED11A" stop-opacity="0.47"/>
<stop offset="0.27" stop-color="#FED63A" stop-opacity="0.55"/>
<stop offset="0.39" stop-color="#FEDD67" stop-opacity="0.67"/>
<stop offset="0.53" stop-color="#FEE6A0" stop-opacity="0.81"/>
<stop offset="0.67" stop-color="#FEF1E5" stop-opacity="0.99"/>
<stop offset="0.68" stop-color="#FFF2EA"/>
</linearGradient>
<linearGradient id="paint7_linear_4001_23732" x1="334.248" y1="25.9472" x2="335.298" y2="31.9398" gradientUnits="userSpaceOnUse">
<stop stop-color="#FECD00" stop-opacity="0.4"/>
<stop offset="0.06" stop-color="#FECE07" stop-opacity="0.42"/>
<stop offset="0.16" stop-color="#FED11A" stop-opacity="0.47"/>
<stop offset="0.27" stop-color="#FED63A" stop-opacity="0.55"/>
<stop offset="0.39" stop-color="#FEDD67" stop-opacity="0.67"/>
<stop offset="0.53" stop-color="#FEE6A0" stop-opacity="0.81"/>
<stop offset="0.67" stop-color="#FEF1E5" stop-opacity="0.99"/>
<stop offset="0.68" stop-color="#FFF2EA"/>
</linearGradient>
<linearGradient id="paint8_linear_4001_23732" x1="337.492" y1="71.4209" x2="328.565" y2="78.3137" gradientUnits="userSpaceOnUse">
<stop stop-color="#FECD00" stop-opacity="0.4"/>
<stop offset="0.13" stop-color="#FECD02" stop-opacity="0.41"/>
<stop offset="0.22" stop-color="#FECE0C" stop-opacity="0.43"/>
<stop offset="0.3" stop-color="#FED01C" stop-opacity="0.47"/>
<stop offset="0.38" stop-color="#FED332" stop-opacity="0.53"/>
<stop offset="0.45" stop-color="#FED74F" stop-opacity="0.6"/>
<stop offset="0.52" stop-color="#FEDC72" stop-opacity="0.69"/>
<stop offset="0.58" stop-color="#FEE29D" stop-opacity="0.8"/>
<stop offset="0.65" stop-color="#FEE9CC" stop-opacity="0.93"/>
<stop offset="0.68" stop-color="#FEEDEA"/>
</linearGradient>
<linearGradient id="paint9_linear_4001_23732" x1="345.754" y1="75.5596" x2="332.778" y2="85.5738" gradientUnits="userSpaceOnUse">
<stop stop-color="#FECD00" stop-opacity="0.4"/>
<stop offset="0.13" stop-color="#FECD02" stop-opacity="0.41"/>
<stop offset="0.22" stop-color="#FECE0C" stop-opacity="0.43"/>
<stop offset="0.3" stop-color="#FED01C" stop-opacity="0.47"/>
<stop offset="0.38" stop-color="#FED332" stop-opacity="0.53"/>
<stop offset="0.45" stop-color="#FED74F" stop-opacity="0.6"/>
<stop offset="0.52" stop-color="#FEDC72" stop-opacity="0.69"/>
<stop offset="0.58" stop-color="#FEE29D" stop-opacity="0.8"/>
<stop offset="0.65" stop-color="#FEE9CC" stop-opacity="0.93"/>
<stop offset="0.68" stop-color="#FEEDEA"/>
</linearGradient>
<linearGradient id="paint10_linear_4001_23732" x1="331.255" y1="74.5957" x2="338.494" y2="82.9587" gradientUnits="userSpaceOnUse">
<stop stop-color="#FECD00" stop-opacity="0.4"/>
<stop offset="0.13" stop-color="#FECD02" stop-opacity="0.41"/>
<stop offset="0.22" stop-color="#FECE0C" stop-opacity="0.43"/>
<stop offset="0.3" stop-color="#FED01C" stop-opacity="0.47"/>
<stop offset="0.38" stop-color="#FED332" stop-opacity="0.53"/>
<stop offset="0.45" stop-color="#FED74F" stop-opacity="0.6"/>
<stop offset="0.52" stop-color="#FEDC72" stop-opacity="0.69"/>
<stop offset="0.58" stop-color="#FEE29D" stop-opacity="0.8"/>
<stop offset="0.65" stop-color="#FEE9CC" stop-opacity="0.93"/>
<stop offset="0.68" stop-color="#FEEDEA"/>
</linearGradient>
<linearGradient id="paint11_linear_4001_23732" x1="332.797" y1="92.7252" x2="327.933" y2="81.0695" gradientUnits="userSpaceOnUse">
<stop offset="0.38" stop-color="white"/>
<stop offset="0.56" stop-color="#FDFDFE" stop-opacity="0.99"/>
<stop offset="0.63" stop-color="#F9F8FA" stop-opacity="0.97"/>
<stop offset="0.68" stop-color="#F2EEF4" stop-opacity="0.93"/>
<stop offset="0.72" stop-color="#E8E1EC" stop-opacity="0.88"/>
<stop offset="0.75" stop-color="#DBCFE1" stop-opacity="0.8"/>
<stop offset="0.78" stop-color="#CBBAD3" stop-opacity="0.71"/>
<stop offset="0.81" stop-color="#B8A0C3" stop-opacity="0.61"/>
<stop offset="0.83" stop-color="#A182B0" stop-opacity="0.48"/>
<stop offset="0.86" stop-color="#89629B" stop-opacity="0.35"/>
<stop offset="0.88" stop-color="#6F3F85" stop-opacity="0.2"/>
</linearGradient>
<linearGradient id="paint12_linear_4001_23732" x1="327.851" y1="79.8319" x2="333.066" y2="76.0819" gradientUnits="userSpaceOnUse">
<stop offset="0.38" stop-color="white"/>
<stop offset="0.56" stop-color="#FDFDFE" stop-opacity="0.99"/>
<stop offset="0.63" stop-color="#F9F8FA" stop-opacity="0.97"/>
<stop offset="0.68" stop-color="#F2EEF4" stop-opacity="0.93"/>
<stop offset="0.72" stop-color="#E8E1EC" stop-opacity="0.88"/>
<stop offset="0.75" stop-color="#DBCFE1" stop-opacity="0.8"/>
<stop offset="0.78" stop-color="#CBBAD3" stop-opacity="0.71"/>
<stop offset="0.81" stop-color="#B8A0C3" stop-opacity="0.61"/>
<stop offset="0.83" stop-color="#A182B0" stop-opacity="0.48"/>
<stop offset="0.86" stop-color="#89629B" stop-opacity="0.35"/>
<stop offset="0.88" stop-color="#6F3F85" stop-opacity="0.2"/>
</linearGradient>
<linearGradient id="paint13_linear_4001_23732" x1="339.618" y1="81.4937" x2="332.981" y2="73.5676" gradientUnits="userSpaceOnUse">
<stop offset="0.38" stop-color="white"/>
<stop offset="0.56" stop-color="#FDFDFE" stop-opacity="0.99"/>
<stop offset="0.63" stop-color="#F9F8FA" stop-opacity="0.97"/>
<stop offset="0.68" stop-color="#F2EEF4" stop-opacity="0.93"/>
<stop offset="0.72" stop-color="#E8E1EC" stop-opacity="0.88"/>
<stop offset="0.75" stop-color="#DBCFE1" stop-opacity="0.8"/>
<stop offset="0.78" stop-color="#CBBAD3" stop-opacity="0.71"/>
<stop offset="0.81" stop-color="#B8A0C3" stop-opacity="0.61"/>
<stop offset="0.83" stop-color="#A182B0" stop-opacity="0.48"/>
<stop offset="0.86" stop-color="#89629B" stop-opacity="0.35"/>
<stop offset="0.88" stop-color="#6F3F85" stop-opacity="0.2"/>
</linearGradient>
<linearGradient id="paint14_linear_4001_23732" x1="335.915" y1="90.7516" x2="331.308" y2="85.6859" gradientUnits="userSpaceOnUse">
<stop offset="0.38" stop-color="white"/>
<stop offset="0.56" stop-color="#FDFDFE" stop-opacity="0.99"/>
<stop offset="0.63" stop-color="#F9F8FA" stop-opacity="0.97"/>
<stop offset="0.68" stop-color="#F2EEF4" stop-opacity="0.93"/>
<stop offset="0.72" stop-color="#E8E1EC" stop-opacity="0.88"/>
<stop offset="0.75" stop-color="#DBCFE1" stop-opacity="0.8"/>
<stop offset="0.78" stop-color="#CBBAD3" stop-opacity="0.71"/>
<stop offset="0.81" stop-color="#B8A0C3" stop-opacity="0.61"/>
<stop offset="0.83" stop-color="#A182B0" stop-opacity="0.48"/>
<stop offset="0.86" stop-color="#89629B" stop-opacity="0.35"/>
<stop offset="0.88" stop-color="#6F3F85" stop-opacity="0.2"/>
</linearGradient>
<linearGradient id="paint15_linear_4001_23732" x1="307.476" y1="104.185" x2="355.145" y2="104.185" gradientUnits="userSpaceOnUse">
<stop stop-color="#FFD31F"/>
<stop offset="0.96" stop-color="#FFD31F"/>
<stop offset="1" stop-color="#FFD621"/>
</linearGradient>
<linearGradient id="paint16_linear_4001_23732" x1="308.515" y1="108.702" x2="338.771" y2="108.702" gradientUnits="userSpaceOnUse">
<stop stop-color="#FFD31F"/>
<stop offset="0.96" stop-color="#FFD31F"/>
<stop offset="1" stop-color="#FFD621"/>
</linearGradient>
<linearGradient id="paint17_linear_4001_23732" x1="350.633" y1="105.357" x2="367.556" y2="105.357" gradientUnits="userSpaceOnUse">
<stop stop-color="#FFD31F"/>
<stop offset="0.96" stop-color="#FFD31F"/>
<stop offset="1" stop-color="#FFD621"/>
</linearGradient>
<clipPath id="clip0_4001_23732">
<rect width="358" height="112" rx="16" fill="white"/>
</clipPath>
</defs>
</svg>
