<svg width="82" height="12" viewBox="0 0 82 12" fill="none" xmlns="http://www.w3.org/2000/svg">
<g opacity="0.16">
<path d="M0 0H3.66297L6.21327 8.63195L8.73402 0H12.2887L8.08086 11.9931H4.28331L0 0Z" fill="black"/>
<path d="M13.4276 0H22.8148V2.5625H16.9363V4.46875H22.3881V6.91319H16.9363V9.27778H22.9855V11.9931H13.4276V0Z" fill="black"/>
<path d="M24.9187 11.9931V0H30.7578C31.8409 0 32.6681 0.097219 33.2392 0.295136C33.8103 0.493052 34.2731 0.857639 34.6243 1.38889C34.9755 1.92014 35.1494 2.56944 35.1494 3.33333C35.1494 4 35.0148 4.57292 34.749 5.05555C34.4798 5.53819 34.1122 5.93056 33.6429 6.22917C33.3442 6.42014 32.9339 6.57986 32.412 6.70486C32.8289 6.85417 33.1341 7 33.3245 7.14583C33.4525 7.24306 33.6396 7.45486 33.8858 7.77778C34.1286 8.10069 34.2928 8.34722 34.3748 8.5243L36.0717 12H32.1134L30.2392 8.33333C30.0029 7.85764 29.7895 7.55208 29.6057 7.40972C29.353 7.22569 29.0674 7.13194 28.7458 7.13194H28.4373V12H24.9187V11.9931ZM28.4373 4.85764H29.9143C30.0751 4.85764 30.3836 4.80208 30.8431 4.69444C31.0762 4.64583 31.2665 4.52083 31.411 4.31945C31.5587 4.11806 31.6309 3.88542 31.6309 3.625C31.6309 3.23611 31.516 2.94097 31.2829 2.73264C31.0499 2.5243 30.6167 2.42014 29.9766 2.42014H28.4373V4.85764Z" fill="black"/>
<path d="M37.3322 0H40.8445V11.9931H37.3322V0Z" fill="black"/>
<path d="M43.3715 0H52.0342V2.57639H46.8904V4.67014H51.2825V7.09028H46.8904V11.9896H43.3715V0Z" fill="black"/>
<path d="M54.0583 0H57.5707V11.9931H54.0583V0Z" fill="black"/>
<path d="M60.0747 0H69.4619V2.5625H63.5834V4.46875H69.0352V6.91319H63.5834V9.27778H69.6326V11.9931H60.0747V0Z" fill="black"/>
<path d="M71.5691 0H76.7747C77.802 0 78.6292 0.149302 79.2593 0.440968C79.8928 0.736107 80.4147 1.15972 80.825 1.70833C81.2385 2.26042 81.5372 2.8993 81.721 3.63194C81.9081 4.36111 82 5.13542 82 5.95486C82 7.23611 81.8622 8.22916 81.5864 8.9375C81.3107 9.64236 80.9267 10.2361 80.4377 10.7118C79.9486 11.191 79.4235 11.5069 78.8589 11.6667C78.0909 11.8854 77.395 11.9931 76.7714 11.9931H71.5658V0H71.5691ZM75.0712 2.71528V9.26736H75.9312C76.6631 9.26736 77.185 9.18056 77.4935 9.01042C77.802 8.84028 78.0449 8.5382 78.2222 8.11111C78.3961 7.68403 78.4847 6.98958 78.4847 6.02778C78.4847 4.75695 78.2878 3.88889 77.8972 3.41667C77.5034 2.94792 76.8568 2.71181 75.9476 2.71181H75.0712V2.71528Z" fill="black"/>
</g>
</svg>
