<svg width="24" height="24" viewBox="0 0 24 24" fill="none" xmlns="http://www.w3.org/2000/svg">
<path d="M9.03186 2V3.60241H3.67344C3.65384 3.60241 3.63506 3.6102 3.62121 3.62405C3.60735 3.6379 3.59957 3.65669 3.59957 3.67628V8.9381H2C2 7.17279 2 5.40749 2 3.64219C2 3.20665 2.17302 2.78896 2.48099 2.48099C2.78896 2.17302 3.20665 2 3.64219 2H9.03186Z" fill="white"/>
<path d="M20.3227 2H15.2427V3.60241H20.3227C20.3425 3.60239 20.3616 3.61009 20.3759 3.62387C20.3902 3.63764 20.3986 3.65643 20.3994 3.67628V8.9381H21.9961V3.67628C21.9961 3.23219 21.8199 2.80626 21.5061 2.49197C21.1924 2.17769 20.7667 2.00075 20.3227 2Z" fill="white"/>
<path d="M3.59957 20.3254V15.146H2V20.3254C2 20.7693 2.1763 21.1949 2.49014 21.5087C2.80397 21.8226 3.22961 21.9989 3.67344 21.9989H9.03186V20.3993H3.67344C3.65384 20.3993 3.63506 20.3915 3.62121 20.3777C3.60735 20.3638 3.59957 20.345 3.59957 20.3254Z" fill="white"/>
<path d="M20.3227 20.3994H15.2427V21.999H20.3227V20.3994Z" fill="white"/>
<path d="M21.9989 15.146V20.3254C22.0004 20.35 22.0004 20.3747 21.9989 20.3993H20.3254C20.3354 20.3997 20.3453 20.3981 20.3546 20.3945C20.3639 20.391 20.3724 20.3856 20.3795 20.3787C20.3867 20.3718 20.3924 20.3635 20.3963 20.3544C20.4002 20.3452 20.4022 20.3354 20.4021 20.3254V15.146H21.9989Z" fill="white"/>
<path d="M12.7283 8.46069H11.2708V13.0208H12.7283V8.46069Z" fill="white"/>
<path d="M12.7283 14.6147H11.2708V16.1007H12.7283V14.6147Z" fill="white"/>
<path d="M9.00356 8.46069H7.54321V10.0574H9.00356V8.46069Z" fill="white"/>
<path d="M11.2707 13.0208H9.8103V14.6146H11.2707V13.0208Z" fill="white"/>
<path d="M16.2343 8.46069H14.7739V10.0574H16.2343V8.46069Z" fill="white"/>
</svg>
