<svg width="20" height="17" viewBox="0 0 20 17" fill="none" xmlns="http://www.w3.org/2000/svg">
<path d="M18.5469 4.96912H15.6907C15.2534 2.15095 12.871 0 10.0011 0C7.12904 0 4.74889 2.15095 4.31158 4.96912H1.45769C0.651405 4.96912 0 5.634 0 6.45753V15.5093C0 15.5279 2.22431e-06 16.9813 0.00227987 17H1.40075V16.9977C1.41897 17 1.43719 17 1.45769 17H18.5469C18.5651 17 18.5833 17 18.6015 16.9977V15.5653H1.40075V6.45753C1.40075 6.42486 1.4258 6.40154 1.45769 6.40154H4.2592C4.28425 6.69315 4.32753 6.9801 4.3913 7.25539C3.4848 7.29971 2.76506 8.06491 2.76506 9.00274V9.27336C2.76506 10.2392 3.52807 11.0231 4.47102 11.0231H15.529C16.4742 11.0231 17.2395 10.2392 17.2395 9.27336V9.00274C17.2395 8.06491 16.5175 7.29971 15.611 7.25539C15.6747 6.9801 15.7203 6.69315 15.7431 6.40154H18.5469C18.5765 6.40154 18.6015 6.42486 18.6015 6.45753V15.5653H20V6.45753C20 5.634 19.3486 4.96912 18.5469 4.96912ZM4.47102 9.49266C4.35258 9.49266 4.25692 9.39468 4.25692 9.27336V9.00274C4.25692 8.88377 4.35258 8.78578 4.47102 8.78578H4.9721C5.10648 9.03541 5.25908 9.2687 5.42535 9.49266H4.47102ZM14.3355 6.40154C14.3036 6.69549 14.2444 6.9801 14.1578 7.25539C13.9847 7.82229 13.7 8.3402 13.3311 8.78578C13.1147 9.0494 12.8687 9.28503 12.5977 9.49266H7.40463C7.13359 9.28503 6.88533 9.0494 6.66895 8.78578C6.30225 8.3402 6.01754 7.82229 5.84216 7.25539C5.75561 6.9801 5.69639 6.69549 5.6645 6.40154C5.64628 6.23823 5.63717 6.07259 5.63717 5.90462C5.63717 5.58268 5.67133 5.26773 5.73511 4.96912C6.15647 2.95348 7.91027 1.43475 10.0011 1.43475C12.0943 1.43475 13.8458 2.95348 14.2672 4.96912C14.3287 5.26773 14.3628 5.58268 14.3628 5.90462C14.3628 6.07259 14.3537 6.23823 14.3355 6.40154ZM15.7454 9.00274V9.27336C15.7454 9.39468 15.6497 9.49266 15.529 9.49266H14.5769C14.7432 9.2687 14.8958 9.03541 15.0302 8.78578H15.529C15.6497 8.78578 15.7454 8.88377 15.7454 9.00274Z" fill="white"/>
<path d="M10.4749 6.10064V3.49243H9.52741V6.09364L9.24043 5.79969C9.01722 6.02832 8.79401 6.25694 8.5708 6.48557L10.008 7.95765C10.484 7.47007 10.9601 6.98482 11.4361 6.49724C11.1992 6.28027 10.9623 6.06331 10.7255 5.84635L10.4749 6.10064Z" fill="white"/>
</svg>
