<svg width="8" height="8" viewBox="0 0 8 8" fill="none" xmlns="http://www.w3.org/2000/svg">
<path d="M7.75204 3.97211C7.72348 3.89846 7.68066 3.83117 7.62604 3.77411L4.62604 0.774111C4.57009 0.718168 4.50368 0.673792 4.43059 0.643516C4.35749 0.613239 4.27915 0.597656 4.20004 0.597656C4.04026 0.597656 3.88702 0.661129 3.77404 0.774111C3.71809 0.830054 3.67372 0.896469 3.64344 0.969562C3.61316 1.04265 3.59758 1.121 3.59758 1.20011C3.59758 1.35989 3.66105 1.51313 3.77404 1.62611L5.75404 3.60011H1.20004C1.04091 3.60011 0.888294 3.66333 0.775773 3.77585C0.663251 3.88837 0.600037 4.04098 0.600037 4.20011C0.600037 4.35924 0.663251 4.51185 0.775773 4.62437C0.888294 4.7369 1.04091 4.80011 1.20004 4.80011H5.75404L3.77404 6.77411C3.7178 6.82989 3.67316 6.89625 3.6427 6.96936C3.61224 7.04248 3.59656 7.1209 3.59656 7.20011C3.59656 7.27932 3.61224 7.35774 3.6427 7.43086C3.67316 7.50397 3.7178 7.57033 3.77404 7.62611C3.82981 7.68235 3.89617 7.72698 3.96929 7.75745C4.04241 7.78791 4.12083 7.80359 4.20004 7.80359C4.27924 7.80359 4.35767 7.78791 4.43078 7.75745C4.5039 7.72698 4.57026 7.68235 4.62604 7.62611L7.62604 4.62611C7.68066 4.56905 7.72348 4.50176 7.75204 4.42811C7.81205 4.28203 7.81205 4.11819 7.75204 3.97211Z" fill="#F04438"/>
</svg>
