<svg width="22" height="20" viewBox="0 0 22 20" fill="none" xmlns="http://www.w3.org/2000/svg">
<path d="M16.424 14.416H5.57602C4.80866 14.416 4.18402 13.7914 4.18402 13.024V5.60001C4.18402 4.83265 4.80866 4.20801 5.57602 4.20801H16.424C17.1914 4.20801 17.816 4.83265 17.816 5.60001V13.024C17.816 13.7914 17.1914 14.416 16.424 14.416ZM5.57602 4.52801C4.98466 4.52801 4.50402 5.00865 4.50402 5.60001V13.024C4.50402 13.6154 4.98466 14.096 5.57602 14.096H16.424C17.0154 14.096 17.496 13.6154 17.496 13.024V5.60001C17.496 5.00865 17.0154 4.52801 16.424 4.52801H5.57602Z" fill="white"/>
<path d="M17.656 12.7265H4.34402C4.2557 12.7265 4.18402 12.6548 4.18402 12.5665C4.18402 12.4782 4.2557 12.4065 4.34402 12.4065H17.656C17.7443 12.4065 17.816 12.4782 17.816 12.5665C17.816 12.6548 17.7443 12.7265 17.656 12.7265Z" fill="white"/>
<path d="M15.5568 15.7919H6.87204C6.78372 15.7919 6.71204 15.7202 6.71204 15.6319C6.71204 15.5436 6.78372 15.4719 6.87204 15.4719H15.5568C15.6452 15.4719 15.7168 15.5436 15.7168 15.6319C15.7168 15.7202 15.6452 15.7919 15.5568 15.7919Z" fill="white"/>
<path d="M8.02913 15.7919C8.00417 15.7919 7.97921 15.7861 7.95617 15.774C7.87745 15.7337 7.84673 15.637 7.88705 15.5583L8.59745 14.1823C8.63777 14.1036 8.73441 14.0729 8.81313 14.1132C8.89185 14.1535 8.92257 14.2502 8.88225 14.3289L8.17185 15.7049C8.14305 15.7606 8.08737 15.7919 8.02913 15.7919Z" fill="white"/>
<path d="M13.9875 15.792C13.9293 15.792 13.8736 15.7606 13.8454 15.7056L13.135 14.3296C13.0947 14.2509 13.1254 14.1542 13.2042 14.1139C13.2829 14.0736 13.3789 14.1043 13.4198 14.183L14.1302 15.559C14.1706 15.6378 14.1398 15.7344 14.0611 15.7747C14.0374 15.7862 14.0125 15.792 13.9875 15.792Z" fill="white"/>
<path d="M7.51201 9.21162H6.36001C6.27169 9.21162 6.20001 9.13994 6.20001 9.05162V6.79818C6.20001 6.70986 6.27169 6.63818 6.36001 6.63818H7.51201C7.60033 6.63818 7.67201 6.70986 7.67201 6.79818V9.05162C7.67201 9.13994 7.60033 9.21162 7.51201 9.21162ZM6.52001 8.89162H7.35201V6.95818H6.52001V8.89162Z" fill="white"/>
<path d="M6.936 10.0001C6.84768 10.0001 6.776 9.9284 6.776 9.84008V9.0516C6.776 8.96328 6.84768 8.8916 6.936 8.8916C7.02432 8.8916 7.096 8.96328 7.096 9.0516V9.84008C7.096 9.9284 7.02432 10.0001 6.936 10.0001Z" fill="white"/>
<path d="M6.936 6.98055C6.84768 6.98055 6.776 6.90887 6.776 6.82055V6.03207C6.776 5.94375 6.84768 5.87207 6.936 5.87207C7.02432 5.87207 7.096 5.94375 7.096 6.03207V6.82055C7.096 6.90887 7.02432 6.98055 6.936 6.98055Z" fill="white"/>
<path d="M10.136 10.5154H8.98404C8.89572 10.5154 8.82404 10.4437 8.82404 10.3554V7.43954C8.82404 7.35122 8.89572 7.27954 8.98404 7.27954H10.136C10.2244 7.27954 10.296 7.35122 10.296 7.43954V10.3554C10.296 10.4437 10.2244 10.5154 10.136 10.5154ZM9.14404 10.1954H9.97604V7.59954H9.14404V10.1954Z" fill="white"/>
<path d="M9.56002 11.5361C9.4717 11.5361 9.40002 11.4644 9.40002 11.3761V10.3553C9.40002 10.267 9.4717 10.1953 9.56002 10.1953C9.64834 10.1953 9.72002 10.267 9.72002 10.3553V11.3761C9.72002 11.4644 9.64834 11.5361 9.56002 11.5361Z" fill="white"/>
<path d="M9.56002 7.62889C9.4717 7.62889 9.40002 7.55721 9.40002 7.46889V6.44809C9.40002 6.35977 9.4717 6.28809 9.56002 6.28809C9.64834 6.28809 9.72002 6.35977 9.72002 6.44809V7.46889C9.72002 7.55721 9.64834 7.62889 9.56002 7.62889Z" fill="white"/>
<path d="M12.824 9.55542H11.672C11.5837 9.55542 11.512 9.48374 11.512 9.39542V6.47958C11.512 6.39126 11.5837 6.31958 11.672 6.31958H12.824C12.9123 6.31958 12.984 6.39126 12.984 6.47958V9.39542C12.984 9.48374 12.9123 9.55542 12.824 9.55542ZM11.832 9.23542H12.664V6.63958H11.832V9.23542Z" fill="white"/>
<path d="M12.248 10.5762C12.1597 10.5762 12.088 10.5045 12.088 10.4162V9.39535C12.088 9.30703 12.1597 9.23535 12.248 9.23535C12.3363 9.23535 12.408 9.30703 12.408 9.39535V10.4162C12.408 10.5045 12.3363 10.5762 12.248 10.5762Z" fill="white"/>
<path d="M12.248 6.66892C12.1597 6.66892 12.088 6.59724 12.088 6.50892V5.48813C12.088 5.39981 12.1597 5.32812 12.248 5.32812C12.3363 5.32812 12.408 5.39981 12.408 5.48813V6.50892C12.408 6.59724 12.3363 6.66892 12.248 6.66892Z" fill="white"/>
<path d="M15.576 11.0913H14.424C14.3357 11.0913 14.264 11.0196 14.264 10.9313V8.01547C14.264 7.92715 14.3357 7.85547 14.424 7.85547H15.576C15.6644 7.85547 15.736 7.92715 15.736 8.01547V10.9313C15.736 11.0196 15.6644 11.0913 15.576 11.0913ZM14.584 10.7713H15.416V8.17547H14.584V10.7713Z" fill="white"/>
<path d="M15 12.112C14.9117 12.112 14.84 12.0404 14.84 11.952V10.9312C14.84 10.8429 14.9117 10.7712 15 10.7712C15.0883 10.7712 15.16 10.8429 15.16 10.9312V11.952C15.16 12.0404 15.0883 12.112 15 12.112Z" fill="white"/>
<path d="M15 8.20481C14.9117 8.20481 14.84 8.13313 14.84 8.04481V7.02401C14.84 6.93569 14.9117 6.86401 15 6.86401C15.0883 6.86401 15.16 6.93569 15.16 7.02401V8.04481C15.16 8.13313 15.0883 8.20481 15 8.20481Z" fill="white"/>
</svg>
