<svg width="32" height="32" viewBox="0 0 32 32" fill="none" xmlns="http://www.w3.org/2000/svg">
<circle cx="16" cy="16" r="16" fill="#1C2127"/>
<g clip-path="url(#clip0_4_3065)">
<path d="M22.7351 21.0402L21.4751 19.5402V14.0877C21.4751 12.6252 20.9051 11.2527 19.8701 10.2177C19.3901 9.73768 18.8426 9.36268 18.2276 9.08518C18.1601 7.91518 17.1851 6.99268 16.0001 6.99268C14.8151 6.99268 13.8401 7.92268 13.7726 9.08518C12.8651 9.49018 12.0926 10.1277 11.5151 10.9452C10.8701 11.8677 10.5251 12.9552 10.5251 14.0802V19.5327L9.26511 21.0327C9.06261 21.2727 9.01761 21.6027 9.15261 21.8877C9.28761 22.1727 9.56511 22.3527 9.88011 22.3527H12.7826C13.0751 23.8677 14.4251 25.0077 16.0001 25.0077C17.5751 25.0077 18.9251 23.8677 19.2176 22.3527H22.1201C22.4351 22.3527 22.7126 22.1727 22.8476 21.8877C22.9826 21.6027 22.9376 21.2727 22.7351 21.0327V21.0402ZM16.0001 7.84018C16.6076 7.84018 17.1176 8.23018 17.3126 8.77018C16.8851 8.66518 16.4501 8.61268 16.0001 8.61268C15.5501 8.61268 15.1151 8.66518 14.6876 8.77018C14.8751 8.23018 15.3926 7.84018 16.0001 7.84018ZM13.6526 21.5127V22.3602H18.3551C18.0776 23.4027 17.1176 24.1677 16.0076 24.1677C14.8976 24.1677 13.9376 23.4027 13.6601 22.3602H12.8126V21.5127H9.99261L11.3876 19.8552V14.0877C11.3876 12.1827 12.5801 10.4427 14.3651 9.76768C14.8901 9.56518 15.4451 9.46768 16.0151 9.46768C16.5851 9.46768 17.1401 9.57268 17.6651 9.76768C18.2726 10.0002 18.8201 10.3527 19.2851 10.8177C20.1626 11.6952 20.6426 12.8577 20.6426 14.0877V19.8552L22.0376 21.5127H13.6676H13.6526Z" fill="white"/>
</g>
<circle cx="20" cy="8" r="4" fill="#F04438"/>
<defs>
<clipPath id="clip0_4_3065">
<rect width="18" height="18" fill="white" transform="translate(7 7)"/>
</clipPath>
</defs>
</svg>
