<svg width="14" height="20" viewBox="0 0 14 20" fill="none" xmlns="http://www.w3.org/2000/svg">
<path d="M10.2226 17.9092L6.98821 19.915L4.17456 17.962V15.4135L5.49942 16.3268C6.40775 16.9538 7.59822 16.9631 8.5164 16.3504L10.2226 15.2129V17.9092Z" fill="white"/>
<path d="M13.3838 13.0986V15.6771L11.3223 17.323V14.566L13.3838 13.0986Z" fill="white"/>
<path d="M13.3838 12.655V13.0984L11.3223 14.5658V14.0981V14.0974L12.8955 13.0813C13.0798 12.9621 13.2431 12.8178 13.3824 12.6543L13.3838 12.655Z" fill="black"/>
<path d="M10.2226 14.8086V15.2128L8.5164 16.3503C7.59822 16.9629 6.40775 16.9536 5.49942 16.3267L4.17456 15.4134V15.0157L5.86951 16.0911C6.59983 16.5545 7.52716 16.5502 8.25326 16.0811L10.2226 14.8086Z" fill="black"/>
<path d="M3.21258 14.4058L3.21188 14.4073V14.8086L1.14966 13.439V13.0984L1.15036 13.0977L3.21258 14.4058Z" fill="black"/>
<path d="M3.21188 14.8085V17.3228L1.14966 15.6768V13.439L3.21188 14.8085Z" fill="white"/>
<path d="M7.77735 14.2658L7.60216 14.3801C7.23348 14.6207 6.76208 14.6279 6.38777 14.3972L2.20634 11.8294C1.86299 11.6181 1.65332 11.2403 1.65332 10.8326V5.8213C1.65332 5.40786 1.86862 5.02583 2.21901 4.81732L6.40958 2.31738C6.77333 2.10102 7.22504 2.10388 7.58598 2.32595L7.62397 2.34952C7.42486 2.3538 7.22644 2.40521 7.04773 2.50304L2.68056 4.90515C2.31469 5.10581 2.09025 5.47283 2.09025 5.86985V10.6862C2.09025 11.0782 2.30906 11.441 2.66719 11.6438L7.02452 14.1123C7.25459 14.2423 7.51984 14.2937 7.77735 14.2658Z" fill="black"/>
<path d="M12.184 5.81068V10.7534C12.184 11.1497 11.9856 11.5189 11.6577 11.7331L7.77744 14.2659C7.51992 14.2938 7.25467 14.2424 7.0246 14.1124L2.66727 11.6439C2.30915 11.4411 2.09033 11.0783 2.09033 10.6863V5.86995C2.09033 5.47293 2.31478 5.1059 2.68064 4.90525L7.04781 2.50313C7.22653 2.40531 7.42494 2.35389 7.62405 2.34961H7.62476L11.6317 4.81456C11.9743 5.02592 12.184 5.40366 12.184 5.81068Z" fill="white"/>
<mask id="mask0_274_11581" style="mask-type:luminance" maskUnits="userSpaceOnUse" x="2" y="2" width="11" height="13">
<path d="M12.2543 5.81068V10.7534C12.2543 11.1497 12.0559 11.5189 11.728 11.7331L7.84775 14.2659C7.59023 14.2938 7.32498 14.2424 7.09491 14.1124L2.73759 11.6439C2.37946 11.4411 2.16064 11.0783 2.16064 10.6863V5.86995C2.16064 5.47293 2.38509 5.1059 2.75096 4.90525L7.11813 2.50313C7.29684 2.40531 7.49525 2.35389 7.69437 2.34961H7.69507L11.702 4.81456C12.0447 5.02592 12.2543 5.40366 12.2543 5.81068Z" fill="white"/>
</mask>
<g mask="url(#mask0_274_11581)">
<mask id="mask1_274_11581" style="mask-type:luminance" maskUnits="userSpaceOnUse" x="-3" y="-4" width="21" height="25">
<path d="M5.98423 -3.5175L-2.32764 14.6519L9.23381 20.0995L17.5457 1.93014L5.98423 -3.5175Z" fill="white"/>
</mask>
<g mask="url(#mask1_274_11581)">
<mask id="mask2_274_11581" style="mask-type:luminance" maskUnits="userSpaceOnUse" x="-3" y="-4" width="21" height="25">
<path d="M5.98423 -3.5175L-2.32764 14.6519L9.23381 20.0995L17.5457 1.93014L5.98423 -3.5175Z" fill="white"/>
</mask>
<g mask="url(#mask2_274_11581)">
<rect x="-2.35083" y="-3.53516" width="19.9256" height="23.6498" fill="url(#paint0_linear_274_11581)"/>
</g>
</g>
</g>
<path d="M4.2439 8.55831C4.2439 8.25697 4.82717 8.05346 4.91442 7.78212C5.00448 7.50078 4.65339 6.98808 4.82154 6.75387C4.99111 6.51751 5.58071 6.69817 5.8143 6.52608C6.04508 6.35542 6.05634 5.7299 6.33355 5.6385C6.60092 5.54995 6.97171 6.04694 7.26862 6.04694C7.56554 6.04694 7.93563 5.54995 8.20369 5.6385C8.48091 5.7299 8.49216 6.35613 8.72294 6.52608C8.95583 6.69817 9.54543 6.5168 9.7157 6.75387C9.88386 6.98808 9.53277 7.50078 9.62283 7.78212C9.71007 8.05346 10.2933 8.25769 10.2933 8.55831C10.2933 8.85964 9.71007 9.06315 9.62283 9.33449C9.53277 9.61584 9.88386 10.1285 9.7157 10.3627C9.54614 10.5991 8.95653 10.4184 8.72294 10.5905C8.49216 10.7612 8.48091 11.3867 8.20369 11.4781C7.93633 11.5667 7.56554 11.0697 7.26862 11.0697C6.97171 11.0697 6.60162 11.5667 6.33355 11.4781C6.05634 11.3867 6.04508 10.7605 5.8143 10.5905C5.58142 10.4184 4.99181 10.5998 4.82154 10.3627C4.65339 10.1285 5.00448 9.61584 4.91442 9.33449C4.82717 9.06315 4.2439 8.85964 4.2439 8.55831Z" fill="black"/>
<path d="M4.72534 8.55826C4.72534 8.30477 5.21574 8.13411 5.28892 7.90561C5.3649 7.66854 5.0694 7.23796 5.21082 7.04088C5.35365 6.84165 5.84897 6.99446 6.04527 6.84951C6.23946 6.70598 6.24861 6.17971 6.4822 6.1026C6.70735 6.02833 7.01904 6.44606 7.26811 6.44606C7.51788 6.44606 7.82887 6.02833 8.05402 6.1026C8.28761 6.17971 8.29676 6.70598 8.49095 6.84951C8.68725 6.99446 9.18257 6.84165 9.3254 7.04088C9.46682 7.23796 9.17132 7.66854 9.2473 7.90561C9.32048 8.13411 9.81088 8.30548 9.81088 8.55826C9.81088 8.81176 9.32048 8.98242 9.2473 9.21092C9.17132 9.44799 9.46682 9.87857 9.3254 10.0757C9.18257 10.2749 8.68725 10.1221 8.49095 10.267C8.29676 10.4105 8.28761 10.9368 8.05402 11.0139C7.82887 11.0882 7.51718 10.6705 7.26811 10.6705C7.01834 10.6705 6.70735 11.0882 6.4822 11.0139C6.24861 10.9368 6.23946 10.4105 6.04527 10.267C5.84897 10.1221 5.35365 10.2749 5.21082 10.0757C5.0694 9.87857 5.3649 9.44799 5.28892 9.21092C5.21574 8.98242 4.72534 8.81104 4.72534 8.55826Z" fill="white"/>
<path d="M6.06714 8.60617L7.02613 9.50875L8.71193 7.98779L8.33762 7.60791L7.11971 8.74827L6.46396 8.17773L6.06714 8.60617Z" fill="black"/>
<path d="M13.9296 5.45028V11.1685C13.9296 11.7219 13.7305 12.2482 13.3822 12.6545C13.2429 12.818 13.0797 12.9622 12.8953 13.0815L11.3221 14.0976V14.0983L10.2224 14.8088L8.25305 16.0813C7.52694 16.5504 6.59961 16.5547 5.86929 16.0913L4.17434 15.0159L3.21254 14.4061L1.15032 13.0979L1.12077 13.0793C0.467137 12.6652 0.0703125 11.9383 0.0703125 11.1564V5.45028C0.0703125 4.63553 0.501612 3.88291 1.19957 3.48017L5.89462 0.767444C6.57991 0.371138 7.42 0.371138 8.10529 0.767444L12.8003 3.48017C13.4983 3.88291 13.9296 4.63553 13.9296 5.45028ZM12.184 10.7536V5.81088C12.184 5.40386 11.9743 5.02612 11.6317 4.81476L7.62474 2.34981H7.62404L7.58604 2.32625C7.2251 2.10417 6.7734 2.10132 6.40964 2.31768L2.21907 4.81762C1.86868 5.02612 1.65339 5.40815 1.65339 5.82159V10.8329C1.65339 11.2406 1.86306 11.6184 2.20641 11.8297L6.38783 14.3975C6.76214 14.6281 7.23355 14.621 7.60223 14.3804L7.77742 14.2661L11.6577 11.7333C11.9856 11.5191 12.184 11.1499 12.184 10.7536Z" fill="white"/>
<path d="M7.05347 16.5053C6.62851 16.5053 6.20424 16.3875 5.83204 16.1518L1.08353 13.1399C0.404564 12.71 0 11.9681 0 11.1562V5.45012C0 4.6111 0.446076 3.83277 1.16514 3.4179L5.86019 0.705165C6.56378 0.298148 7.43763 0.298148 8.14052 0.705165L12.8356 3.4179C13.5539 3.83277 14 4.6111 14 5.45012V11.1684C14 11.7318 13.7995 12.2766 13.4357 12.7015C13.2901 12.8721 13.1212 13.0206 12.9334 13.142L11.3601 14.1581L11.2849 14.0375L12.8581 13.0214C13.034 12.9071 13.193 12.7686 13.3295 12.6079C13.6714 12.2087 13.86 11.6982 13.86 11.1684V5.45012C13.86 4.66251 13.4406 3.93131 12.7666 3.54214L8.07086 0.829412C7.41019 0.447387 6.58981 0.447387 5.92984 0.829412L1.2348 3.54214C0.560057 3.93131 0.141422 4.66251 0.141422 5.45012V11.1562C0.141422 11.9188 0.522063 12.615 1.15881 13.0185L1.18836 13.0371L5.90733 16.0304C6.61021 16.4767 7.51643 16.4724 8.2158 16.0204L11.2849 14.0375L11.3601 14.1581L8.29109 16.1411C7.91537 16.3839 7.48407 16.5053 7.05347 16.5053Z" fill="black"/>
<path d="M6.98097 14.6359C6.76215 14.6359 6.54404 14.5767 6.35196 14.4588L2.17053 11.8911C1.80818 11.6683 1.58374 11.2627 1.58374 10.8328V5.82151C1.58374 5.3845 1.81381 4.97605 2.1839 4.75612L6.37447 2.25618C6.76145 2.02625 7.23989 2.02911 7.62334 2.26547L7.66133 2.28903L7.58816 2.41113L7.55017 2.38757C7.21104 2.17906 6.78818 2.17621 6.44624 2.37971L2.25567 4.87966C1.9278 5.0746 1.72446 5.43591 1.72446 5.82222V10.8335C1.72446 11.2134 1.92357 11.5719 2.24371 11.769L6.42513 14.3367C6.77341 14.5517 7.22089 14.5452 7.56494 14.3203L11.6204 11.6733C11.93 11.4712 12.1143 11.127 12.1143 10.7536V5.8108C12.1143 5.43163 11.9159 5.07317 11.5958 4.87537L7.58887 2.41042L7.66204 2.28831L11.669 4.75327C12.0306 4.97605 12.2551 5.38164 12.2551 5.8108V10.7536C12.2551 11.1763 12.0461 11.5647 11.6964 11.7932L7.64093 14.4403C7.44111 14.5702 7.21104 14.6359 6.98097 14.6359Z" fill="black"/>
<path d="M7.64313 14.3446C7.41516 14.3446 7.1879 14.286 6.9909 14.1746L2.63358 11.7061C2.25575 11.4919 2.02075 11.1013 2.02075 10.6864V5.87006C2.02075 5.44877 2.26138 5.0546 2.64765 4.84253L7.01482 2.44041C7.20057 2.33902 7.41024 2.2826 7.62343 2.27832L7.62554 2.42113H7.62483C7.43627 2.42542 7.24771 2.4754 7.08166 2.56609L2.71449 4.9682C2.37325 5.15529 2.16077 5.50089 2.16077 5.87006V10.6864C2.16077 11.0499 2.36833 11.3926 2.70183 11.5819L7.05915 14.0504C7.27163 14.1704 7.52492 14.2218 7.77048 14.1953L7.78525 14.3374C7.73741 14.3424 7.69027 14.3446 7.64313 14.3446Z" fill="black"/>
<path d="M6.9859 19.9998L4.104 17.9997V15.0157H4.24472V17.9241L6.99012 19.8299L10.152 17.8691V14.8086H10.2928V17.9491L6.9859 19.9998Z" fill="black"/>
<path d="M3.21192 17.3944C3.19644 17.3944 3.18096 17.3894 3.1683 17.3794L1.10608 15.7335C1.0892 15.72 1.07935 15.6993 1.07935 15.6771V13.0986H1.22006V15.6421L3.14156 17.1759V14.4075H3.28228V17.323C3.28228 17.3502 3.2668 17.3752 3.24288 17.3873C3.23303 17.3923 3.22248 17.3944 3.21192 17.3944Z" fill="black"/>
<path d="M11.3924 14.566H11.2517V14.0984L11.3924 14.0977V14.566Z" fill="black"/>
<path d="M11.3221 17.3945C11.3115 17.3945 11.301 17.3924 11.2911 17.3874C11.2672 17.3752 11.2517 17.3502 11.2517 17.3231V14.5661H11.3924V17.176L13.3132 15.6422V12.6553H13.4539V15.6772C13.4539 15.6993 13.4441 15.72 13.4272 15.7336L11.3657 17.3795C11.353 17.3895 11.3375 17.3945 11.3221 17.3945Z" fill="black"/>
<path d="M1.18936 13.3795L1.1123 13.499L3.17474 14.8688L3.2518 14.7493L1.18936 13.3795Z" fill="black"/>
<path d="M13.3443 13.0394L11.283 14.5073L11.3638 14.6242L13.4251 13.1563L13.3443 13.0394Z" fill="black"/>
<path d="M7.02463 16.8766C6.47865 16.8766 5.93337 16.7131 5.45915 16.386L4.12866 15.4684L4.2138 15.3542L4.21661 15.3563L5.53865 16.2675C6.42658 16.8802 7.57976 16.8894 8.47754 16.2903L10.1837 15.1528L10.2675 15.2671L10.2611 15.2721L8.55494 16.4096C8.08846 16.7209 7.55654 16.8766 7.02463 16.8766Z" fill="black"/>
<path d="M6.17114 2.45602C7.57621 2.43531 7.59309 2.41817 7.6135 0.992188C7.6339 2.41817 7.65079 2.43531 9.05585 2.45602C7.65079 2.47673 7.6339 2.49386 7.6135 3.91985C7.59309 2.49386 7.57621 2.47673 6.17114 2.45602Z" fill="white"/>
<path d="M11.3074 11.0962C12.1643 11.0833 12.1742 11.0733 12.1869 10.2036C12.1995 11.0733 12.2094 11.0833 13.0663 11.0962C12.2094 11.109 12.1995 11.119 12.1869 11.9888C12.1742 11.119 12.1643 11.109 11.3074 11.0962Z" fill="black"/>
<path d="M0.260986 15.666C1.11796 15.6532 1.12781 15.6432 1.14047 14.7734C1.15314 15.6432 1.16299 15.6532 2.01996 15.666C1.16299 15.6789 1.15314 15.6889 1.14047 16.5586C1.12781 15.6889 1.11796 15.6789 0.260986 15.666Z" fill="black"/>
<path d="M3.91968 10.3823C4.77665 10.3695 4.7865 10.3595 4.79916 9.48975C4.81183 10.3595 4.82168 10.3695 5.67865 10.3823C4.82168 10.3952 4.81183 10.4052 4.79916 11.2749C4.7865 10.4052 4.77665 10.3952 3.91968 10.3823Z" fill="white"/>
<defs>
<linearGradient id="paint0_linear_274_11581" x1="-2.35083" y1="8.28975" x2="17.5748" y2="8.28975" gradientUnits="userSpaceOnUse">
<stop stop-color="#483BEB"/>
<stop offset="0.479167" stop-color="#7847E1"/>
<stop offset="0.963542" stop-color="#DD568D"/>
</linearGradient>
</defs>
</svg>
