<svg width="18" height="18" viewBox="0 0 18 18" fill="none" xmlns="http://www.w3.org/2000/svg">
<g opacity="0.2">
<path d="M8.98157 0C10.8491 0 12.5822 0.56187 14.0232 1.52843C9.32753 2.17726 5.18608 1.85284 3.69812 1.69565C5.18273 0.62876 7.00657 0 8.98157 0Z" fill="black"/>
<path d="M1.23938 4.34786C2.24367 4.01341 4.877 3.21407 7.72865 2.96658C11.3528 2.6522 14.715 2.98331 15.8167 3.1104V3.11374C16.3306 3.70571 16.7673 4.36123 17.1166 5.07361C10.5971 5.06023 3.38232 4.81274 1.02441 4.72244C1.09495 4.59535 1.16549 4.4716 1.23938 4.34786Z" fill="black"/>
<path d="M17.691 6.58537C17.8522 7.16396 17.9597 7.76931 18 8.38804C15.1047 8.58871 3.22116 8.11379 0.050415 7.97667L0.0739268 7.45493C1.10845 7.1974 3.91308 6.5653 6.95954 6.41479C10.2512 6.25092 16.0754 6.5051 17.691 6.58537Z" fill="black"/>
<path d="M16.727 13.6387C16.455 14.0868 16.1459 14.5082 15.8033 14.8996C15.8033 14.8996 15.8033 14.8996 15.8 14.8996C12.1355 15.1169 4.1717 14.7758 1.96158 14.6721C1.82723 14.5082 1.69959 14.3377 1.57532 14.1638C2.57625 13.9129 5.37752 13.2674 8.30307 13.1136C11.373 12.9564 15.4843 13.4681 16.727 13.6387Z" fill="black"/>
<path d="M13.6503 16.7056C12.2866 17.5284 10.6878 17.9999 8.97817 17.9999C7.22485 17.9999 5.5891 17.5016 4.2019 16.6421C5.96193 16.515 9.39802 16.3712 13.6503 16.7056Z" fill="black"/>
<path d="M13.6503 16.7056C12.2866 17.5284 10.6878 17.9999 8.97817 17.9999C7.22485 17.9999 5.5891 17.5016 4.2019 16.6421" fill="black"/>
<path d="M3.69812 1.69565C5.18273 0.62876 7.00657 0 8.98157 0C10.8491 0 12.5822 0.56187 14.0232 1.52843" fill="black"/>
<path d="M3.69812 1.69554C5.18608 1.85274 9.32753 2.17715 14.0232 1.52832L3.69812 1.69554Z" fill="black"/>
<path d="M1.23938 4.35127C2.24367 4.01682 4.877 3.21415 7.72865 2.97C11.3528 2.65562 14.715 2.98672 15.8167 3.11381V3.11716" fill="black"/>
<path d="M1.02441 4.72241C3.38232 4.80937 10.5971 5.06021 17.1166 5.07358L1.02441 4.72241Z" fill="black"/>
<path d="M0.0739746 7.45493C1.1085 7.1974 3.91312 6.5653 6.95959 6.41479C10.2512 6.25092 16.0755 6.5051 17.6877 6.58537" fill="black"/>
<path d="M0 7.97656C0.0167942 7.97656 0.0335889 7.97991 0.050383 7.97991C3.22112 8.11369 15.1047 8.5886 18 8.39128" fill="black"/>
<path d="M0.164625 10.9999C0.157907 10.9698 0.178059 10.9397 0.208289 10.9331C0.749061 10.8127 5.23647 9.81266 7.53727 9.66884C10.1504 9.50496 15.9679 9.77252 17.7515 9.85279C17.8489 9.85613 17.9228 9.9364 17.9228 10.0334V10.1906C17.9228 10.2341 17.9228 10.2575 17.9194 10.2809C17.859 10.8996 17.7817 11.1739 17.6003 11.719C17.5768 11.7892 17.513 11.8361 17.4391 11.8327C15.978 11.8127 1.9213 11.6755 0.443409 11.5852C0.426614 11.5852 0.413178 11.5785 0.403102 11.5652C0.359437 11.5117 0.231801 11.3311 0.164625 10.9999Z" fill="black"/>
<path d="M1.57861 14.1671C2.57955 13.9163 5.38082 13.2708 8.30636 13.1169C11.373 12.9564 15.4842 13.4681 16.727 13.6387" fill="black"/>
<path d="M1.96497 14.6755C4.17508 14.7792 12.1389 15.117 15.8034 14.903C15.8067 14.903 15.8067 14.903 15.8067 14.903" fill="black"/>
<path d="M4.2019 16.6413C5.96193 16.5149 9.39802 16.3719 13.6503 16.7044C13.6503 16.7044 13.6503 16.7044 13.6537 16.7044" fill="black"/>
</g>
</svg>
