<svg width="17" height="20" viewBox="0 0 17 20" fill="none" xmlns="http://www.w3.org/2000/svg">
<path d="M7.1239 14.3667H6.59753V7.08936L5.7616 7.84521L4.5448 8.9458L4.21179 8.64404L7.1239 6.01123V14.3667Z" fill="#A7B1BC" stroke="#A7B1BC"/>
<path d="M9.7998 5.63574V12.9141L10.6357 12.1572L11.8506 11.0566L12.1826 11.3574L9.27344 13.9902V5.63574H9.7998Z" fill="#A7B1BC" stroke="#A7B1BC"/>
<path d="M16.2 1.38136V18.6212H14.6764V1.38136H1.72349V18.6212H14.6764V20H0.199951V1.38136C0.19995 1.01545 0.360374 0.664483 0.646011 0.405502C0.931648 0.146522 1.31916 0.000683948 1.72349 0H14.6764C15.0807 0.000683948 15.4683 0.146522 15.7539 0.405502C16.0395 0.664483 16.2 1.01545 16.2 1.38136Z" fill="#A7B1BC"/>
</svg>
