<svg width="16" height="16" viewBox="0 0 16 16" fill="none" xmlns="http://www.w3.org/2000/svg">
<path d="M14.4733 4.86004C14.4114 4.79756 14.3376 4.74796 14.2564 4.71411C14.1751 4.68027 14.088 4.66284 14 4.66284C13.912 4.66284 13.8249 4.68027 13.7436 4.71411C13.6624 4.74796 13.5886 4.79756 13.5267 4.86004L9.33333 9.06004L6.47333 6.19337C6.41136 6.13089 6.33762 6.08129 6.25638 6.04745C6.17515 6.0136 6.08801 5.99618 6 5.99618C5.91199 5.99618 5.82486 6.0136 5.74362 6.04745C5.66238 6.08129 5.58864 6.13089 5.52667 6.19337L1.52667 10.1934C1.46418 10.2553 1.41458 10.3291 1.38074 10.4103C1.34689 10.4916 1.32947 10.5787 1.32947 10.6667C1.32947 10.7547 1.34689 10.8419 1.38074 10.9231C1.41458 11.0043 1.46418 11.0781 1.52667 11.14C1.58864 11.2025 1.66238 11.2521 1.74362 11.286C1.82486 11.3198 1.91199 11.3372 2 11.3372C2.08801 11.3372 2.17514 11.3198 2.25638 11.286C2.33762 11.2521 2.41136 11.2025 2.47333 11.14L6 7.60671L8.86 10.4734C8.92198 10.5359 8.99571 10.5855 9.07695 10.6193C9.15819 10.6531 9.24533 10.6706 9.33333 10.6706C9.42134 10.6706 9.50848 10.6531 9.58972 10.6193C9.67096 10.5855 9.74469 10.5359 9.80667 10.4734L14.4733 5.80671C14.5358 5.74473 14.5854 5.671 14.6193 5.58976C14.6531 5.50852 14.6705 5.42138 14.6705 5.33337C14.6705 5.24537 14.6531 5.15823 14.6193 5.07699C14.5854 4.99575 14.5358 4.92202 14.4733 4.86004Z" fill="#F79009"/>
</svg>
