<svg width="14" height="14" viewBox="0 0 14 14" fill="none" xmlns="http://www.w3.org/2000/svg">
<path d="M12.7867 6.76659C11.6084 4.03075 9.39171 2.33325 7.00004 2.33325C4.60837 2.33325 2.39171 4.03075 1.21337 6.76659C1.18125 6.84018 1.16467 6.91962 1.16467 6.99992C1.16467 7.08022 1.18125 7.15966 1.21337 7.23325C2.39171 9.96909 4.60837 11.6666 7.00004 11.6666C9.39171 11.6666 11.6084 9.96909 12.7867 7.23325C12.8188 7.15966 12.8354 7.08022 12.8354 6.99992C12.8354 6.91962 12.8188 6.84018 12.7867 6.76659ZM7.00004 10.4999C5.15087 10.4999 3.40087 9.16409 2.39171 6.99992C3.40087 4.83575 5.15087 3.49992 7.00004 3.49992C8.84921 3.49992 10.5992 4.83575 11.6084 6.99992C10.5992 9.16409 8.84921 10.4999 7.00004 10.4999ZM7.00004 4.66659C6.53855 4.66659 6.08742 4.80343 5.70371 5.05982C5.31999 5.31621 5.02092 5.68063 4.84432 6.10699C4.66772 6.53335 4.62151 7.00251 4.71154 7.45513C4.80157 7.90775 5.0238 8.32351 5.35012 8.64984C5.67645 8.97616 6.09221 9.19839 6.54483 9.28842C6.99745 9.37845 7.46661 9.33224 7.89297 9.15564C8.31933 8.97903 8.68374 8.67996 8.94014 8.29625C9.19652 7.91253 9.33337 7.46141 9.33337 6.99992C9.33337 6.38108 9.08754 5.78759 8.64996 5.35C8.21237 4.91242 7.61888 4.66659 7.00004 4.66659ZM7.00004 8.16659C6.76929 8.16659 6.54373 8.09816 6.35187 7.96997C6.16002 7.84177 6.01048 7.65956 5.92218 7.44638C5.83388 7.2332 5.81077 6.99862 5.85579 6.77231C5.90081 6.546 6.01192 6.33812 6.17508 6.17496C6.33824 6.0118 6.54612 5.90069 6.77243 5.85567C6.99874 5.81065 7.23332 5.83376 7.4465 5.92206C7.65968 6.01036 7.84189 6.1599 7.97009 6.35175C8.09828 6.54361 8.16671 6.76917 8.16671 6.99992C8.16671 7.30934 8.04379 7.60608 7.825 7.82488C7.6062 8.04367 7.30946 8.16659 7.00004 8.16659Z" fill="#A7B1BC"/>
</svg>
