<svg width="12" height="10" viewBox="0 0 12 10" fill="none" xmlns="http://www.w3.org/2000/svg">
<path d="M5.85001 5.30995C6.1168 5.07902 6.33079 4.79339 6.47745 4.47246C6.62411 4.15153 6.70002 3.80281 6.70001 3.44995C6.70001 2.78691 6.43662 2.15103 5.96778 1.68218C5.49894 1.21334 4.86305 0.949951 4.20001 0.949951C3.53697 0.949951 2.90109 1.21334 2.43225 1.68218C1.9634 2.15103 1.70001 2.78691 1.70001 3.44995C1.70001 3.80281 1.77591 4.15153 1.92257 4.47246C2.06924 4.79339 2.28322 5.07902 2.55001 5.30995C1.85008 5.62689 1.25624 6.13872 0.839502 6.78422C0.42276 7.42973 0.200748 8.18161 0.200012 8.94995C0.200012 9.08256 0.252691 9.20974 0.346459 9.3035C0.440227 9.39727 0.567404 9.44995 0.700012 9.44995C0.83262 9.44995 0.959797 9.39727 1.05357 9.3035C1.14733 9.20974 1.20001 9.08256 1.20001 8.94995C1.20001 8.1543 1.51608 7.39124 2.07869 6.82863C2.6413 6.26602 3.40436 5.94995 4.20001 5.94995C4.99566 5.94995 5.75872 6.26602 6.32133 6.82863C6.88394 7.39124 7.20001 8.1543 7.20001 8.94995C7.20001 9.08256 7.25269 9.20974 7.34646 9.3035C7.44023 9.39727 7.5674 9.44995 7.70001 9.44995C7.83262 9.44995 7.9598 9.39727 8.05357 9.3035C8.14733 9.20974 8.20001 9.08256 8.20001 8.94995C8.19928 8.18161 7.97726 7.42973 7.56052 6.78422C7.14378 6.13872 6.54994 5.62689 5.85001 5.30995ZM4.20001 4.94995C3.90334 4.94995 3.61333 4.86198 3.36666 4.69716C3.11998 4.53233 2.92772 4.29807 2.81419 4.02398C2.70066 3.74989 2.67096 3.44829 2.72883 3.15732C2.78671 2.86634 2.92957 2.59907 3.13935 2.38929C3.34913 2.17951 3.61641 2.03665 3.90738 1.97877C4.19835 1.9209 4.49995 1.9506 4.77404 2.06413C5.04813 2.17766 5.28239 2.36992 5.44722 2.6166C5.61204 2.86327 5.70001 3.15328 5.70001 3.44995C5.70001 3.84778 5.54198 4.22931 5.26067 4.51061C4.97937 4.79192 4.59784 4.94995 4.20001 4.94995ZM9.07001 5.10995C9.39 4.74962 9.59902 4.30448 9.67191 3.82812C9.74481 3.35176 9.67848 2.86449 9.4809 2.42495C9.28331 1.98541 8.96291 1.61235 8.55825 1.35066C8.15359 1.08898 7.68192 0.949822 7.20001 0.949951C7.0674 0.949951 6.94023 1.00263 6.84646 1.0964C6.75269 1.19017 6.70001 1.31734 6.70001 1.44995C6.70001 1.58256 6.75269 1.70974 6.84646 1.8035C6.94023 1.89727 7.0674 1.94995 7.20001 1.94995C7.59784 1.94995 7.97937 2.10799 8.26067 2.38929C8.54198 2.6706 8.70001 3.05213 8.70001 3.44995C8.6993 3.71257 8.62966 3.9704 8.49804 4.19766C8.36643 4.42492 8.17745 4.61364 7.95001 4.74495C7.87588 4.78771 7.81397 4.84878 7.77019 4.92232C7.72642 4.99586 7.70226 5.0794 7.70001 5.16495C7.69792 5.24983 7.71748 5.33385 7.75684 5.40908C7.79621 5.48431 7.85408 5.54828 7.92501 5.59495L8.12001 5.72495L8.18501 5.75995C8.78771 6.04581 9.29617 6.49795 9.6505 7.06311C10.0048 7.62827 10.1903 8.28292 10.185 8.94995C10.185 9.08256 10.2377 9.20974 10.3315 9.3035C10.4252 9.39727 10.5524 9.44995 10.685 9.44995C10.8176 9.44995 10.9448 9.39727 11.0386 9.3035C11.1323 9.20974 11.185 9.08256 11.185 8.94995C11.1891 8.18267 10.9969 7.42708 10.6267 6.75498C10.2566 6.08289 9.72069 5.51661 9.07001 5.10995Z" fill="#85D1F0"/>
</svg>
