<svg width="20" height="19" viewBox="0 0 20 19" fill="none" xmlns="http://www.w3.org/2000/svg">
<path d="M10.0001 9.91661C7.5345 9.91661 5.52783 7.90995 5.52783 5.44439C5.52783 2.97883 7.5345 0.972168 10.0001 0.972168C12.4656 0.972168 14.4723 2.97883 14.4723 5.44439C14.4723 7.90995 12.4656 9.91661 10.0001 9.91661ZM10.0001 2.13883C8.18005 2.13883 6.6945 3.62439 6.6945 5.44439C6.6945 7.26439 8.18005 8.74995 10.0001 8.74995C11.8201 8.74995 13.3056 7.26439 13.3056 5.44439C13.3056 3.62439 11.8201 2.13883 10.0001 2.13883Z" fill="white"/>
<path d="M3.31917 17.6946C3.00028 17.6946 2.73584 17.4302 2.73584 17.1113C2.73584 13.7902 5.99473 11.0835 10.0003 11.0835C10.7858 11.0835 11.5558 11.1846 12.3025 11.3946C12.6136 11.4802 12.7925 11.7991 12.707 12.1102C12.6214 12.4213 12.3025 12.6002 11.9914 12.5146C11.3536 12.3357 10.6847 12.2502 10.0003 12.2502C6.64028 12.2502 3.90251 14.4279 3.90251 17.1113C3.90251 17.4302 3.63806 17.6946 3.31917 17.6946Z" fill="white"/>
<path d="M14.6666 17.6946C13.3755 17.6946 12.1622 17.0101 11.5088 15.8979C11.1588 15.3379 10.9722 14.6768 10.9722 14.0001C10.9722 12.8646 11.4777 11.8145 12.3566 11.1145C13.0099 10.5934 13.8344 10.3057 14.6666 10.3057C16.7044 10.3057 18.3611 11.9623 18.3611 14.0001C18.3611 14.6768 18.1744 15.3379 17.8244 15.9057C17.6299 16.2323 17.381 16.5279 17.0855 16.7768C16.4399 17.3679 15.5766 17.6946 14.6666 17.6946ZM14.6666 11.4723C14.0911 11.4723 13.5466 11.6668 13.0877 12.0323C12.4888 12.5068 12.1388 13.2301 12.1388 14.0001C12.1388 14.459 12.2633 14.9101 12.5044 15.299C12.9555 16.0612 13.7877 16.5279 14.6666 16.5279C15.2811 16.5279 15.8722 16.3023 16.3233 15.8979C16.5255 15.7268 16.6966 15.5245 16.821 15.3068C17.0699 14.9101 17.1944 14.459 17.1944 14.0001C17.1944 12.6079 16.0588 11.4723 14.6666 11.4723Z" fill="white"/>
<path d="M14.2235 15.3536C14.0757 15.3536 13.9279 15.2992 13.8112 15.1826L13.0412 14.4126C12.8157 14.187 12.8157 13.8136 13.0412 13.5881C13.2668 13.3625 13.6401 13.3625 13.8657 13.5881L14.239 13.9614L15.4834 12.8103C15.7168 12.5925 16.0901 12.6081 16.3079 12.8414C16.5257 13.0748 16.5101 13.4481 16.2768 13.6659L14.6201 15.1981C14.5035 15.2992 14.3635 15.3536 14.2235 15.3536Z" fill="white"/>
</svg>
